<svg xmlns="http://www.w3.org/2000/svg" viewBox="0 0 512 512">
  <defs />
  <path fill="#fdbf00"
    d="M122.099 370.536c-17.271 45.322-1.055 95.859-.352 97.983l4.189 12.759 13.14-2.754c2.197-.454 54.067-11.689 84.683-49.307l13.11-134.209-114.77 75.528zM94.984 197.318c-47.871 7.705-84.54 47.007-86.034 48.677L0 256l8.95 10.005c1.494 1.67 38.163 40.972 86.034 48.677L192.88 256l-97.896-58.682zM139.076 33.476l-13.14-2.754-4.189 12.759c-.703 2.124-16.919 52.661.352 97.983l84.785 45.483 16.875-104.165c-30.615-37.617-82.486-48.852-84.683-49.306z" />
  <path fill="#ffda2d"
    d="M163.729 264.291c-25.62-.981-49.131 4.058-67.632 14.751-48.296 27.876-62.065 91.201-62.622 93.882l-2.754 13.14 12.759 4.189c1.538.498 23.613 7.573 51.387 7.573 19.321 0 41.411-3.428 61.23-14.868 18.794-10.854 34.468-28.11 46.655-51.343l-39.023-67.324zM156.098 129.042c-48.311-27.876-110.01-8.159-112.617-7.295l-12.759 4.189 2.754 13.14c.557 2.681 14.326 66.006 62.622 93.882 18.604 10.737 42.1 15.806 68.13 14.722l38.555-67.236c-12.188-23.277-27.877-40.548-46.685-51.402z" />
  <path fill="#ff9100"
    d="M390.253 43.48l-4.189-12.759-13.14 2.754c-2.197.454-54.067 11.689-84.683 49.307l-13.11 134.209 114.771-75.527c17.27-45.322 1.054-95.86.351-97.984zM503.05 245.995c-1.494-1.67-38.163-40.972-86.034-48.677L319.12 256l97.896 58.682c47.871-7.705 84.54-47.007 86.034-48.677L512 256l-8.95-10.005zM389.901 370.536l-84.785-45.483-16.875 104.165c30.615 37.617 82.485 48.853 84.683 49.307l13.14 2.754 4.189-12.759c.703-2.124 16.919-52.662-.352-97.984z" />
  <path fill="#fdbf00"
    d="M468.52 121.747c-2.622-.864-64.336-20.596-112.617 7.295-18.794 10.854-34.468 28.11-46.655 51.343l39.023 67.324c25.635.85 49.131-4.072 67.632-14.751 48.296-27.876 62.065-91.201 62.622-93.882l2.754-13.14-12.759-4.189zM478.524 372.924c-.557-2.681-14.326-66.006-62.622-93.882-18.618-10.752-42.246-15.996-68.13-14.722l-38.555 67.236c12.188 23.276 27.876 40.547 46.685 51.401 19.819 11.44 41.909 14.868 61.23 14.868 27.773 0 49.849-7.075 51.387-7.573l12.759-4.189-2.754-13.139z" />
  <path fill="#ffda2d"
    d="M316 400.899C316 456.7 268.001 501.2 265.901 503L256 512l-9.901-9c-2.1-1.8-50.099-46.3-50.099-102.102 0-21.299 7.2-44.099 21-65.999l39-.3h38.699C308.8 356.8 316 379.3 316 400.899z" />
  <path fill="#fdbf00"
    d="M294.699 334.6C308.8 356.8 316 379.3 316 400.899 316 456.7 268.001 501.2 265.901 503L256 512V334.6h38.699z" />
  <path fill="#ffda2d"
    d="M316 111.099c0 23.101-8.401 47.999-24.6 71.4h-70.8c-16.199-23.401-24.6-48.3-24.6-71.4C196 55.3 243.999 10.8 246.099 9L256 0l9.901 9C268.001 10.8 316 55.3 316 111.099z" />
  <path fill="#fdbf00" d="M291.4 182.5H256V0l9.901 9C268.001 10.8 316 55.3 316 111.1c0 23.1-8.401 47.999-24.6 71.4z" />
  <path fill="#895d3c" d="M256 151c-57.9 0-105 47.1-105 105s47.1 105 105 105 105-47.1 105-105-47.1-105-105-105z" />
  <path fill="#714c2f" d="M361 256c0 57.9-47.1 105-105 105V151c57.9 0 105 47.1 105 105z" />
  <path fill="#714c2f" d="M241 211h30v30h-30zM241 271h30v30h-30zM211 241h30v30h-30z" />
  <path fill="#523522" d="M271 241h30v30h-30zM256 211h15v30h-15zM256 271h15v30h-15z" />
</svg>
