<?xml version="1.0" encoding="iso-8859-1"?>
<!-- Generator: Adobe Illustrator 19.0.0, SVG Export Plug-In . SVG Version: 6.00 Build 0)  -->
<svg xmlns="http://www.w3.org/2000/svg" xmlns:xlink="http://www.w3.org/1999/xlink" version="1.1" id="Layer_1" x="0px" y="0px" viewBox="0 0 512 512" style="enable-background:new 0 0 512 512;" xml:space="preserve" width="512" height="512">
<g>
	<path style="fill:#FDBF00;" d="M122.099,370.536c-17.271,45.322-1.055,95.859-0.352,97.983l4.189,12.759l13.14-2.754   c2.197-0.454,54.067-11.689,84.683-49.307l13.11-134.209L122.099,370.536z"/>
	<path style="fill:#FDBF00;" d="M94.984,197.318c-47.871,7.705-84.54,47.007-86.034,48.677L0,256l8.95,10.005   c1.494,1.67,38.163,40.972,86.034,48.677L192.88,256L94.984,197.318z"/>
	<path style="fill:#FDBF00;" d="M139.076,33.476l-13.14-2.754l-4.189,12.759c-0.703,2.124-16.919,52.661,0.352,97.983l84.785,45.483   l16.875-104.165C193.144,45.165,141.273,33.93,139.076,33.476z"/>
	<path style="fill:#FFDA2D;" d="M163.729,264.291c-25.62-0.981-49.131,4.058-67.632,14.751   c-48.296,27.876-62.065,91.201-62.622,93.882l-2.754,13.14l12.759,4.189c1.538,0.498,23.613,7.573,51.387,7.573   c19.321,0,41.411-3.428,61.23-14.868c18.794-10.854,34.468-28.11,46.655-51.343L163.729,264.291z"/>
	<path style="fill:#FFDA2D;" d="M156.098,129.042c-48.311-27.876-110.01-8.159-112.617-7.295l-12.759,4.189l2.754,13.14   c0.557,2.681,14.326,66.006,62.622,93.882c18.604,10.737,42.1,15.806,68.13,14.722l38.555-67.236   C190.595,157.167,174.906,139.896,156.098,129.042z"/>
	<path style="fill:#FF9100;" d="M390.253,43.48l-4.189-12.759l-13.14,2.754c-2.197,0.454-54.067,11.689-84.683,49.307   l-13.11,134.209l114.771-75.527C407.172,96.142,390.956,45.604,390.253,43.48z"/>
	<path style="fill:#FF9100;" d="M503.05,245.995c-1.494-1.67-38.163-40.972-86.034-48.677L319.12,256l97.896,58.682   c47.871-7.705,84.54-47.007,86.034-48.677L512,256L503.05,245.995z"/>
	<path style="fill:#FF9100;" d="M389.901,370.536l-84.785-45.483l-16.875,104.165c30.615,37.617,82.485,48.853,84.683,49.307   l13.14,2.754l4.189-12.759C390.956,466.396,407.172,415.858,389.901,370.536z"/>
	<path style="fill:#FDBF00;" d="M468.52,121.747c-2.622-0.864-64.336-20.596-112.617,7.295   c-18.794,10.854-34.468,28.11-46.655,51.343l39.023,67.324c25.635,0.85,49.131-4.072,67.632-14.751   c48.296-27.876,62.065-91.201,62.622-93.882l2.754-13.14L468.52,121.747z"/>
	<path style="fill:#FDBF00;" d="M478.524,372.924c-0.557-2.681-14.326-66.006-62.622-93.882   c-18.618-10.752-42.246-15.996-68.13-14.722l-38.555,67.236c12.188,23.276,27.876,40.547,46.685,51.401   c19.819,11.44,41.909,14.868,61.23,14.868c27.773,0,49.849-7.075,51.387-7.573l12.759-4.189L478.524,372.924z"/>
	<path style="fill:#FFDA2D;" d="M316,400.899C316,456.7,268.001,501.2,265.901,503L256,512l-9.901-9   c-2.1-1.8-50.099-46.3-50.099-102.102c0-21.299,7.2-44.099,21-65.999l39-0.3h38.699C308.8,356.8,316,379.3,316,400.899z"/>
	<path style="fill:#FDBF00;" d="M294.699,334.6C308.8,356.8,316,379.3,316,400.899C316,456.7,268.001,501.2,265.901,503L256,512   V334.6H294.699z"/>
	<path style="fill:#FFDA2D;" d="M316,111.099c0,23.101-8.401,47.999-24.6,71.4h-70.8c-16.199-23.401-24.6-48.3-24.6-71.4   C196,55.3,243.999,10.8,246.099,9L256,0l9.901,9C268.001,10.8,316,55.3,316,111.099z"/>
	<path style="fill:#FDBF00;" d="M291.4,182.5H256V0l9.901,9c2.1,1.8,50.099,46.3,50.099,102.1   C316,134.2,307.599,159.099,291.4,182.5z"/>
	<path style="fill:#895D3C;" d="M256,151c-57.9,0-105,47.1-105,105s47.1,105,105,105s105-47.1,105-105S313.9,151,256,151z"/>
	<path style="fill:#714C2F;" d="M361,256c0,57.9-47.1,105-105,105V151C313.9,151,361,198.1,361,256z"/>
	<rect x="241" y="211" style="fill:#714C2F;" width="30" height="30"/>
	<rect x="241" y="271" style="fill:#714C2F;" width="30" height="30"/>
	<rect x="211" y="241" style="fill:#714C2F;" width="30" height="30"/>
	<rect x="271" y="241" style="fill:#523522;" width="30" height="30"/>
	<rect x="256" y="211" style="fill:#523522;" width="15" height="30"/>
	<rect x="256" y="271" style="fill:#523522;" width="15" height="30"/>
</g>















</svg>
